<svg width="559" height="244" viewBox="0 0 559 244" fill="none" xmlns="http://www.w3.org/2000/svg">
<g clip-path="url(#clip0_104_118)">
<path d="M296.35 227.5H289.6V234.05H296.35V227.5Z" fill="white"/>
<path d="M341.05 227.5H334.3V234.05H341.05V227.5Z" fill="white"/>
<path d="M396.4 227.5H389.65V234.05H396.4V227.5Z" fill="white"/>
<path d="M439.3 227.5H432.55V234.05H439.3V227.5Z" fill="white"/>
<path d="M472.5 227.5H465.75V234.05H472.5V227.5Z" fill="white"/>
<path d="M91.9501 234.049V207.699H82.1001V201.949H108.5V207.699H98.7501V234.049H91.9501Z" fill="white"/>
<path d="M107.45 234.05V210.4H113.5V214.45C114.35 212.8 115.35 211.65 116.5 210.85C117.65 210.1 119 209.7 120.55 209.7C120.8 209.7 121 209.7 121.15 209.7H121.5V216.15H119.35C117.55 216.15 116.25 216.6 115.35 217.5C114.45 218.4 114 219.75 114 221.5V234H107.45V234.05Z" fill="white"/>
<path d="M124.85 210.349H131.4V233.999H124.85V210.349ZM124.85 201.949H131.4V207.699H124.85V201.949Z" fill="white"/>
<path d="M154.05 222.35C154.05 219.95 153.6 218.15 152.65 216.9C151.7 215.65 150.35 215 148.6 215C146.85 215 145.55 215.6 144.65 216.9C143.75 218.15 143.3 219.95 143.3 222.35C143.3 224.6 143.8 226.3 144.75 227.55C145.7 228.75 147.05 229.35 148.75 229.35C150.4 229.35 151.7 228.75 152.65 227.5C153.6 226.25 154.05 224.55 154.05 222.35ZM136.95 243.55V210.4H143.15V213.6C144.1 212.2 145.15 211.2 146.3 210.55C147.45 209.9 148.85 209.6 150.4 209.6C153.4 209.6 155.85 210.75 157.7 213.05C159.55 215.35 160.5 218.4 160.5 222.1C160.5 225.8 159.55 228.95 157.7 231.3C155.8 233.65 153.4 234.85 150.45 234.85C148.9 234.85 147.5 234.55 146.3 233.9C145.1 233.25 144.05 232.35 143.25 231.1V243.55H136.9H136.95Z" fill="white"/>
<path d="M171.35 201.949H164.8V234.049H171.35V201.949Z" fill="white"/>
<path d="M182.35 219.7H191.95C191.9 218.1 191.45 216.9 190.65 216.05C189.85 215.2 188.65 214.8 187.15 214.8C185.75 214.8 184.6 215.2 183.8 216.05C183 216.9 182.5 218.1 182.35 219.7ZM191.9 226.85H198.4C197.75 229.35 196.4 231.3 194.4 232.7C192.4 234.1 189.95 234.85 187.1 234.85C183.55 234.85 180.75 233.7 178.7 231.4C176.65 229.1 175.6 226 175.6 222.05C175.6 218.1 176.6 215.1 178.65 212.9C180.7 210.65 183.45 209.55 187 209.55C190.75 209.55 193.65 210.65 195.65 212.85C197.7 215.05 198.7 218.2 198.7 222.25C198.7 222.7 198.7 223.05 198.7 223.25C198.7 223.45 198.7 223.7 198.65 223.9H182.35C182.45 225.75 182.9 227.15 183.75 228.1C184.6 229.05 185.8 229.5 187.4 229.5C188.5 229.5 189.45 229.3 190.15 228.85C190.85 228.4 191.45 227.75 191.85 226.85" fill="white"/>
<path d="M228.15 208.4L223.55 222.05H232.75L228.15 208.4ZM224.2 202H232.05L244 234.1H236.85L234.6 227.5H221.75L219.55 234.1H212.4L224.15 202H224.2Z" fill="white"/>
<path d="M258.1 224.15H264.8C265.05 225.9 265.8 227.2 267 228.05C268.25 228.9 270 229.35 272.35 229.35C274.35 229.35 275.8 229 276.8 228.35C277.8 227.65 278.3 226.65 278.3 225.35C278.3 223.4 275.4 221.8 269.65 220.5H269.45C269.45 220.5 269.1 220.4 268.75 220.3C265.65 219.65 263.45 218.9 262.15 218.1C261 217.35 260.1 216.4 259.5 215.15C258.9 213.95 258.6 212.5 258.6 210.8C258.6 207.7 259.7 205.3 261.9 203.65C264.1 202 267.25 201.15 271.4 201.15C275.25 201.15 278.3 202.05 280.45 203.8C282.6 205.55 283.8 208.05 283.9 211.3H277.35C277.25 209.75 276.6 208.55 275.5 207.75C274.4 206.95 272.8 206.55 270.75 206.55C268.95 206.55 267.6 206.9 266.65 207.55C265.7 208.25 265.2 209.2 265.2 210.45C265.2 212.15 267.1 213.4 270.85 214.25C271.85 214.5 272.65 214.65 273.25 214.8C275.65 215.4 277.35 215.85 278.4 216.2C279.4 216.55 280.3 216.9 281.05 217.3C282.4 218.05 283.4 219 284.1 220.2C284.75 221.4 285.1 222.85 285.1 224.5C285.1 227.85 283.95 230.4 281.6 232.25C279.3 234.1 276 235 271.8 235C267.6 235 264.35 234.05 262 232.2C259.6 230.35 258.35 227.65 258.2 224.2" fill="white"/>
<path d="M314.9 208.4L310.3 222.05H319.5L314.9 208.4ZM310.95 202H318.8L330.75 234.1H323.6L321.35 227.5H308.5L306.3 234.1H299.15L310.9 202H310.95Z" fill="white"/>
<path d="M359.9 234.049V201.949H383.95V207.549H366.65V214.349H382.45V219.849H366.65V228.099H384.75V234.049H359.9Z" fill="white"/>
<path d="M401.05 224.15H407.75C408 225.9 408.75 227.2 409.95 228.05C411.15 228.9 412.95 229.35 415.3 229.35C417.25 229.35 418.75 229 419.75 228.35C420.75 227.65 421.25 226.65 421.25 225.35C421.25 223.4 418.35 221.8 412.6 220.5H412.4C412.4 220.5 412 220.4 411.7 220.3C408.6 219.65 406.4 218.9 405.1 218.1C403.95 217.35 403.05 216.4 402.4 215.15C401.8 213.95 401.5 212.5 401.5 210.8C401.5 207.7 402.6 205.3 404.8 203.65C407 202 410.15 201.15 414.3 201.15C418.15 201.15 421.2 202.05 423.35 203.8C425.5 205.55 426.7 208.05 426.8 211.3H420.25C420.15 209.75 419.5 208.55 418.4 207.75C417.3 206.95 415.7 206.55 413.65 206.55C411.85 206.55 410.5 206.9 409.55 207.55C408.6 208.25 408.1 209.2 408.1 210.45C408.1 212.15 410 213.4 413.75 214.25C414.75 214.5 415.55 214.65 416.15 214.8C418.55 215.4 420.3 215.85 421.3 216.2C422.3 216.55 423.2 216.9 423.95 217.3C425.3 218.05 426.3 219 427 220.2C427.65 221.4 428 222.85 428 224.5C428 227.85 426.85 230.4 424.5 232.25C422.2 234.1 418.9 235 414.7 235C410.5 235 407.25 234.05 404.9 232.2C402.55 230.35 401.25 227.65 401.1 224.2" fill="white"/>
<path d="M452.4 216.799H459C460.8 216.799 462.1 216.449 462.9 215.699C463.7 214.949 464.1 213.799 464.1 212.149C464.1 210.599 463.7 209.449 462.9 208.699C462.1 207.899 460.9 207.549 459.35 207.549H452.4V216.799ZM452.4 222.599V233.999H445.6V201.899H460.3C463.75 201.899 466.4 202.799 468.2 204.549C470 206.299 470.9 208.849 470.9 212.249C470.9 215.649 470 218.099 468.3 219.899C466.55 221.699 464.05 222.599 460.8 222.599H452.45H452.4Z" fill="white"/>
<path d="M556.2 161.3L510.6 91.0499C508.2 87.2999 504.1 85.1 499.7 85.1C498.15 85.1 496.6 85.4 495.15 85.95C496.9 79.6 496.1 72.55 492.4 66.85L455.15 9.59995C451.25 3.59995 444.75 -4.88292e-05 437.75 -4.88292e-05C433.05 -4.88292e-05 428.6 1.54995 424.8 4.49995L345.7 66.3C339.55 71.1 336.45 78.85 336.9 86.35C335.2 85.55 333.3 85.05 331.35 85.05C329.7 85.05 328.1 85.4 326.6 86C328.4 79.65 327.6 72.55 323.9 66.8L286.65 9.54995C282.75 3.54995 276.25 -0.0500488 269.25 -0.0500488C264.55 -0.0500488 260.1 1.49995 256.3 4.44995L177.2 66.25C171.1 71.05 168 78.7 168.4 86.25C166.75 85.5 164.9 85.05 163.05 85.05C161.45 85.05 159.85 85.4 158.35 85.95C160.15 79.6 159.35 72.5 155.65 66.8L118.35 9.59995C114.45 3.59995 107.95 -4.88292e-05 100.95 -4.88292e-05C96.2501 -4.88292e-05 91.8001 1.54995 88.0001 4.49995L8.85006 66.3C-0.449939 73.6 -2.79994 87.6 3.65006 97.5L40.9001 154.75C44.8001 160.75 51.3001 164.35 58.3501 164.35C58.4501 164.35 58.5001 164.35 58.6001 164.35C56.6501 167.7 57.4001 170.75 57.8001 171.85C58.3001 173.3 60.5001 178.1 67.8501 178.1H73.7001C78.6001 178.1 85.0001 175.9 88.8501 172.9L107.65 158.2C108.8 157.3 111.85 156.25 113.3 156.25H178.65C179.35 156.25 180.8 157.1 181.2 157.65L189.1 169.75C192.25 174.6 198.75 178.1 204.55 178.1H210.4C214.8 178.1 218.5 176.05 220.35 172.65C221.85 169.9 221.9 166.55 220.6 163.45C222.55 164.05 224.55 164.4 226.6 164.4C226.7 164.4 226.8 164.4 226.9 164.4C224.95 167.75 225.7 170.8 226.1 171.9C226.6 173.35 228.8 178.15 236.15 178.15H242C246.9 178.15 253.3 175.95 257.15 172.95L275.95 158.25C277.1 157.35 280.15 156.3 281.6 156.3H346.95C347.65 156.3 349.1 157.15 349.5 157.7L357.4 169.8C360.55 174.65 367.05 178.15 372.85 178.15H378.7C383.05 178.15 386.8 176.1 388.65 172.7C390.15 169.9 390.2 166.55 388.9 163.45C390.9 164.1 392.95 164.45 395.1 164.45C395.1 164.45 395.15 164.45 395.2 164.45C393.3 167.8 394 170.85 394.4 171.95C394.9 173.4 397.1 178.2 404.45 178.2H410.3C415.2 178.2 421.6 176 425.45 173L444.25 158.3C445.4 157.4 448.45 156.35 449.95 156.35H515.3C516 156.35 517.45 157.2 517.85 157.75L525.75 169.85C528.9 174.7 535.4 178.2 541.2 178.2H547.05C551.45 178.2 555.15 176.15 557 172.75C558.85 169.35 558.55 165.1 556.15 161.45M145.9 128.35L156.6 120L162 128.35H145.9ZM314.25 128.35L324.95 120L330.35 128.35H314.25ZM482.6 128.35L493.3 120L498.7 128.35H482.6Z" fill="#0078BF"/>
<path d="M167.45 95.3005C165.7 92.6005 162.2 92.0505 159.7 94.0005L66.6 166.851C64.05 168.851 64.65 170.451 67.85 170.451H73.7C76.9 170.451 81.6 168.851 84.1 166.851L102.9 152.151C105.4 150.201 110.1 148.551 113.3 148.551H178.65C181.85 148.551 185.9 150.751 187.65 153.451L195.55 165.551C197.3 168.251 201.35 170.451 204.55 170.451H210.4C213.6 170.451 214.8 168.251 213.05 165.551L167.45 95.3005ZM123.6 135.951L158.55 108.651L176.3 135.951H123.65H123.6Z" fill="white"/>
<path d="M335.8 95.3005C334.05 92.6005 330.55 92.0505 328.05 94.0005L234.95 166.851C232.4 168.851 232.95 170.451 236.2 170.451H242.05C245.25 170.451 249.95 168.851 252.45 166.851L271.25 152.151C273.75 150.201 278.45 148.551 281.65 148.551H347C350.2 148.551 354.25 150.751 356 153.451L363.9 165.551C365.65 168.251 369.7 170.451 372.9 170.451H378.75C381.95 170.451 383.15 168.251 381.4 165.551L335.8 95.3005ZM291.95 135.951L326.9 108.651L344.65 135.951H292H291.95Z" fill="white"/>
<path d="M549.75 165.5L504.15 95.2505C502.4 92.5505 498.9 92.0005 496.4 93.9505L403.3 166.8C400.75 168.8 401.3 170.401 404.55 170.401H410.4C413.6 170.401 418.3 168.8 420.8 166.8L439.6 152.1C442.1 150.15 446.8 148.5 450 148.5H515.35C518.55 148.5 522.6 150.7 524.35 153.4L532.25 165.5C534 168.2 538.05 170.401 541.25 170.401H547.1C550.3 170.401 551.5 168.2 549.75 165.5ZM460.3 135.9L495.25 108.6L513 135.9H460.35H460.3Z" fill="white"/>
<path d="M449.05 13.7501C444.7 7.05006 435.95 5.60006 429.65 10.5001L350.55 72.3001C344.25 77.2501 342.65 86.7501 347 93.4501L384.25 150.7C388.6 157.4 397.35 158.85 403.65 153.95L482.75 92.1501C489.05 87.2001 490.65 77.7001 486.3 70.9501L449.05 13.7001V13.7501Z" fill="white"/>
<path d="M112 13.7C107.65 7.00001 98.9001 5.55001 92.6001 10.45L13.5001 72.25C7.20006 77.2 5.60006 86.7 9.95006 93.4L47.2001 150.65C51.5501 157.35 60.3001 158.8 66.6001 153.9L145.7 92.1C152 87.15 153.6 77.65 149.25 70.9L112 13.65V13.7Z" fill="white"/>
<path d="M280.55 13.7501C276.2 7.05006 267.45 5.60006 261.15 10.5001L182.05 72.3001C175.75 77.2501 174.15 86.7501 178.5 93.4501L215.75 150.7C220.1 157.4 228.85 158.85 235.15 153.95L314.25 92.1501C320.55 87.2001 322.15 77.7001 317.8 70.9501L280.55 13.7001V13.7501Z" fill="white"/>
<path d="M226.35 87.4003C223.4 95.1503 223.75 102.3 227.3 107.6C229.6 111.05 234.3 115.15 243.6 115.45C257.25 115.4 270.6 102.5 271.65 88.4003C273.6 72.2503 263.3 52.6503 262.85 51.8503L261.35 49.0503L258.85 50.9003C247.35 59.3503 232.3 74.3503 226.4 87.2503V87.4003H226.35Z" fill="white"/>
<path d="M260.45 53.0505C260.45 53.0505 270.8 72.5505 268.9 88.1505C268 100.35 256.35 112.6 243.65 112.65C229 112.25 224.05 101 228.9 88.3005C234.7 75.5505 249.75 60.8505 260.45 53.0005" fill="#0078BF"/>
<path d="M57.8501 87.4003C54.9001 95.1503 55.2501 102.3 58.8001 107.6C61.1001 111.05 65.8001 115.15 75.1001 115.45C88.7501 115.4 102.1 102.5 103.15 88.4003C105.1 72.2503 94.8001 52.6503 94.3501 51.8503L92.8501 49.0503L90.3 50.9003C78.8001 59.3503 63.7501 74.3503 57.9001 87.2503V87.4003H57.8501Z" fill="#0078BF"/>
<path d="M91.95 53.0505C91.95 53.0505 102.3 72.5505 100.4 88.1505C99.5 100.35 87.85 112.6 75.15 112.65C60.5 112.25 55.55 101 60.4 88.3005C66.2 75.5505 81.25 60.8505 91.95 53.0005" fill="white"/>
<path d="M446.65 54.7996C445.15 52.7996 442.75 51.6496 439.95 51.6496H433.45C432.8 49.7496 431.1 48.3496 429.05 48.3496H418.35C416.3 48.3496 414.4 49.7496 413.6 51.6496H405.45C401.25 51.6496 397.55 54.1496 396.5 57.7996C395.85 59.9496 396.25 62.2496 397.55 64.0496L385.25 106C384.5 108.5 384.95 111.1 386.4 113.1C387.85 115.1 390.2 116.25 392.75 116.25H421.5C425.65 116.25 429.5 113.35 430.7 109.3L443.4 65.9996C445.4 64.8996 447 63.2496 447.6 61.1496C448.25 58.9496 447.85 56.6996 446.5 54.8996" fill="white"/>
<path d="M430.7 66.5002H430.45C429.4 66.5002 428.25 67.3502 427.95 68.4002L416.6 107.05C416.3 108.1 416.95 108.95 418 108.95H418.25C419.3 108.95 420.45 108.1 420.75 107.05L432.05 68.4002C432.35 67.3502 431.75 66.5002 430.65 66.5002" fill="#0078BF"/>
<path d="M420.2 66.5002H419.95C418.9 66.5002 417.75 67.3502 417.45 68.4002L406.15 107.1C405.85 108.15 406.5 109 407.55 109H407.8C408.85 109 410 108.15 410.3 107.1L421.6 68.4002C421.9 67.3502 421.3 66.5002 420.2 66.5002Z" fill="#0078BF"/>
<path d="M409.75 66.5002H409.5C408.45 66.5002 407.3 67.3502 407 68.4002L395.7 107.1C395.4 108.15 396.05 109 397.1 109H397.35C398.4 109 399.55 108.15 399.85 107.1L411.15 68.4002C411.45 67.3502 410.85 66.5002 409.75 66.5002Z" fill="#0078BF"/>
<path d="M442.3 59.3998C442 60.4498 440.55 61.2998 439.1 61.3998H404C402.55 61.2998 401.65 60.4498 402 59.3998C402.35 58.2998 403.9 57.3498 405.55 57.3498H440.05C441.65 57.3498 442.7 58.2498 442.4 59.3998M425.5 107.6C425.05 109.15 423.35 110.45 421.75 110.45H393C391.4 110.45 390.45 109.2 390.9 107.6L403.5 64.5498H404.4H438.1L425.5 107.55V107.6ZM444.7 56.3498C443.7 54.9998 442.05 54.2498 440.1 54.2498H431.45L431.3 52.9498C431.2 51.8498 430.25 50.9998 429.15 50.9998H418.45C417.4 50.9998 416.25 51.8498 415.95 52.8998L415.55 54.2998H405.6C402.55 54.2998 399.85 56.0998 399.1 58.5498C398.7 59.9498 398.95 61.3498 399.75 62.4998C400 62.8498 400.25 63.0998 400.6 63.3998L400.5 63.7498L387.9 106.8C387.4 108.5 387.7 110.25 388.65 111.55C389.65 112.9 391.2 113.65 392.95 113.65H421.7C424.7 113.65 427.6 111.45 428.45 108.55L441.05 65.4998L441.45 64.1498C443.35 63.4498 444.85 62.0998 445.35 60.3498C445.75 58.9998 445.5 57.5498 444.65 56.3998" fill="#0078BF"/>
</g>
<defs>
<clipPath id="clip0_104_118">
<rect width="558.25" height="243.55" fill="white"/>
</clipPath>
</defs>
</svg>
