<svg xmlns="http://www.w3.org/2000/svg" width="48" height="49" viewBox="0 0 48 49" fill="none">
  <path fill-rule="evenodd" clip-rule="evenodd" d="M16 2.5C17.1046 2.5 18 3.39543 18 4.5V6.5H30V4.5C30 3.39543 30.8954 2.5 32 2.5C33.1046 2.5 34 3.39543 34 4.5V6.5H36C41.5228 6.5 46 10.9772 46 16.5V20.5V27.0094C44.792 26.1668 43.4449 25.5098 42 25.0798V22.5H6V36.5C6 39.8137 8.68629 42.5 12 42.5H24.5798C25.0098 43.9449 25.6668 45.292 26.5094 46.5H12C6.47715 46.5 2 42.0228 2 36.5V20.5V16.5C2 10.9772 6.47715 6.5 12 6.5H14V4.5C14 3.39543 14.8954 2.5 16 2.5ZM14 12.5V10.5H12C8.68629 10.5 6 13.1863 6 16.5V18.5H42V16.5C42 13.1863 39.3137 10.5 36 10.5H34V12.5C34 13.6046 33.1046 14.5 32 14.5C30.8954 14.5 30 13.6046 30 12.5V10.5H18V12.5C18 13.6046 17.1046 14.5 16 14.5C14.8954 14.5 14 13.6046 14 12.5ZM30.926 45.574C32.8753 47.5247 35.2333 48.5 38 48.5C40.7653 48.5013 43.1233 47.5267 45.074 45.576C47.0247 43.6253 48 41.2667 48 38.5C48.0013 35.7347 47.0267 33.3767 45.076 31.426C43.1253 29.4753 40.7667 28.5 38 28.5C35.2347 28.5013 32.8767 29.4767 30.926 31.426C28.9753 33.3753 28 35.7333 28 38.5C28.0013 41.2653 28.9767 43.6233 30.926 45.574ZM42.75 41.85L41.35 43.25L37 38.9V32.5H39V38.1L42.75 41.85Z" fill="#00278A"/>
</svg>