<svg width="24" height="24" viewBox="0 0 24 24" fill="none" xmlns="http://www.w3.org/2000/svg">
<path d="M5.37381 5.37332C5.6248 5.1224 5.96518 4.98145 6.32008 4.98145C6.67499 4.98145 7.01537 5.1224 7.26636 5.37332L11.9991 10.106L16.7318 5.37332C16.9842 5.12951 17.3223 4.99461 17.6732 4.99766C18.0242 5.00071 18.3599 5.14147 18.608 5.38963C18.8562 5.63778 18.9969 5.97348 19 6.32441C19.003 6.67535 18.8681 7.01344 18.6243 7.26587L13.8916 11.9986L18.6243 16.7313C18.8681 16.9837 19.003 17.3218 19 17.6728C18.9969 18.0237 18.8562 18.3594 18.608 18.6075C18.3599 18.8557 18.0242 18.9965 17.6732 18.9995C17.3223 19.0026 16.9842 18.8676 16.7318 18.6238L11.9991 13.8911L7.26636 18.6238C7.01393 18.8676 6.67583 19.0026 6.3249 18.9995C5.97397 18.9965 5.63827 18.8557 5.39011 18.6075C5.14196 18.3594 5.00119 18.0237 4.99815 17.6728C4.9951 17.3218 5.13 16.9837 5.37381 16.7313L10.1065 11.9986L5.37381 7.26587C5.12289 7.01488 4.98193 6.6745 4.98193 6.3196C4.98193 5.96469 5.12289 5.62432 5.37381 5.37332Z" fill="#F12828"/>
</svg>
