<svg width="24" height="24" viewBox="0 0 24 24" fill="none" xmlns="http://www.w3.org/2000/svg">
<path d="M19.0001 19.9999H5.00005C4.73484 19.9999 4.48048 20.1052 4.29295 20.2928C4.10541 20.4803 4.00005 20.7346 4.00005 20.9999C4.00005 21.2651 4.10541 21.5194 4.29295 21.707C4.48048 21.8945 4.73484 21.9999 5.00005 21.9999H19.0001C19.2653 21.9999 19.5196 21.8945 19.7072 21.707C19.8947 21.5194 20.0001 21.2651 20.0001 20.9999C20.0001 20.7346 19.8947 20.4803 19.7072 20.2928C19.5196 20.1052 19.2653 19.9999 19.0001 19.9999ZM5.00005 17.9999H5.09005L9.26005 17.6199C9.71685 17.5744 10.1441 17.3731 10.4701 17.0499L19.4701 8.04986C19.8194 7.68083 20.0082 7.18837 19.995 6.68039C19.9819 6.17242 19.768 5.69037 19.4001 5.33986L16.6601 2.59986C16.3024 2.26395 15.8338 2.07122 15.3434 2.05831C14.8529 2.0454 14.3748 2.21323 14.0001 2.52986L5.00005 11.5299C4.67682 11.8558 4.47556 12.2831 4.43005 12.7399L4.00005 16.9099C3.98658 17.0563 4.00559 17.204 4.05571 17.3422C4.10584 17.4805 4.18585 17.606 4.29005 17.7099C4.38349 17.8025 4.49431 17.8759 4.61615 17.9256C4.73798 17.9754 4.86845 18.0006 5.00005 17.9999ZM15.2701 3.99986L18.0001 6.72986L16.0001 8.67986L13.3201 5.99986L15.2701 3.99986ZM6.37005 12.9099L12.0001 7.31986L14.7001 10.0199L9.10005 15.6199L6.10005 15.8999L6.37005 12.9099Z" fill="#4B710E"/>
</svg>
