<svg width="24" height="24" viewBox="0 0 24 24" fill="none" xmlns="http://www.w3.org/2000/svg">
<path fill-rule="evenodd" clip-rule="evenodd" d="M11.2568 1.78045C11.6817 1.40652 12.3183 1.40652 12.7432 1.78045L22.1182 10.0304C22.5847 10.4409 22.63 11.1518 22.2196 11.6182C21.8091 12.0846 21.0982 12.13 20.6318 11.7196L19.5 10.7236V19.875C19.5 20.4963 18.9963 21 18.375 21H5.62501C5.00369 21 4.50001 20.4963 4.50001 19.875V10.7236L3.36822 11.7196C2.90179 12.13 2.19092 12.0846 1.78046 11.6182C1.37 11.1518 1.41537 10.4409 1.88181 10.0304L11.2568 1.78045ZM6.75001 8.74357V18.75H17.25V8.74357L12 4.12357L6.75001 8.74357Z" fill="#00278A"/>
</svg>
