<svg width="221" height="41" viewBox="0 0 221 41" fill="none" xmlns="http://www.w3.org/2000/svg">
<g clip-path="url(#clip0_274_13007)">
<path d="M60.7385 35.6334C60.362 35.475 60.0483 35.2112 59.7974 34.8445C59.5464 34.4778 59.4209 34.0862 59.4209 33.6723C59.4209 33.1306 59.6009 32.6612 59.961 32.2612C60.3211 31.8639 60.7821 31.6639 61.3468 31.6639C61.6605 31.6639 61.9579 31.7278 62.2389 31.8556C65.1196 33.1639 68.2076 33.8167 71.4947 33.8167C76.9752 33.8167 79.7168 31.9834 79.7168 28.3139C79.7168 27.3584 79.3649 26.5612 78.6583 25.9223C77.9545 25.2834 77.0843 24.7834 76.0504 24.4139C75.0165 24.0473 73.5434 23.6084 71.6339 23.0973C69.0969 22.4278 67.0455 21.7806 65.4796 21.1584C63.9138 20.5362 62.5662 19.6028 61.4396 18.3584C60.3129 17.1139 59.7483 15.4556 59.7483 13.3834C59.7483 11.5639 60.2175 9.91393 61.1586 8.4306C62.0997 6.94726 63.4855 5.76671 65.316 4.88893C67.1491 4.01115 69.3479 3.57227 71.9176 3.57227C75.363 3.57227 78.481 4.09727 81.2689 5.15004C82.1446 5.46949 82.5838 6.10838 82.5838 7.06393C82.5838 7.57504 82.412 8.03615 82.0682 8.45282C81.7245 8.86671 81.269 9.07504 80.7043 9.07504C80.516 9.07504 80.2651 9.01115 79.9514 8.88338C77.5071 8.02226 74.9865 7.59171 72.3868 7.59171C69.9125 7.59171 67.8993 8.06949 66.3499 9.02782C64.8004 9.98338 64.0229 11.325 64.0229 13.0473C64.0229 14.1945 64.3912 15.1278 65.1277 15.8473C65.8643 16.5639 66.7891 17.1223 67.8993 17.5223C69.0096 17.9223 70.5236 18.3445 72.4332 18.7889C74.9074 19.3945 76.9042 20.0028 78.4237 20.6084C79.9432 21.2139 81.2444 22.1556 82.3247 23.4306C83.4049 24.7056 83.9451 26.4278 83.9451 28.5973C83.9451 30.3834 83.4431 31.9862 82.442 33.4056C81.4381 34.825 80.0305 35.9334 78.2137 36.7306C76.3969 37.5278 74.2963 37.9278 71.9176 37.9278C67.943 37.9278 64.2166 37.1639 60.7385 35.6334Z" fill="#00278A"/>
<path d="M91.4714 7.35278C91.0022 6.875 90.7676 6.3 90.7676 5.63056V5.43889C90.7676 4.76944 91.0022 4.19444 91.4714 3.71667C91.9406 3.23889 92.5053 3 93.1627 3H93.4437C94.1011 3 94.6658 3.23889 95.135 3.71667C95.6042 4.19444 95.8388 4.76944 95.8388 5.43889V5.63056C95.8388 6.3 95.6042 6.875 95.135 7.35278C94.6658 7.83056 94.1011 8.06944 93.4437 8.06944H93.1627C92.5053 8.07222 91.9406 7.83333 91.4714 7.35278ZM91.7524 37.0667C91.3459 36.6528 91.1413 36.1417 91.1413 35.5361V15.0083C91.1413 14.4028 91.3459 13.8833 91.7524 13.4528C92.1588 13.0222 92.6608 12.8056 93.2555 12.8056C93.8829 12.8056 94.3985 13.0139 94.8049 13.4278C95.2114 13.8417 95.416 14.3694 95.416 15.0056V35.5333C95.416 36.1389 95.2032 36.65 94.7804 37.0639C94.3575 37.4778 93.8474 37.6861 93.2527 37.6861C92.6608 37.6889 92.1588 37.4806 91.7524 37.0667Z" fill="#00278A"/>
<path d="M105.709 37.0667C105.302 36.6529 105.098 36.1417 105.098 35.5362V6.9723C105.098 6.11119 105.395 5.36952 105.99 4.7473C106.584 4.12508 107.305 3.81396 108.15 3.81396H109.7C110.327 3.81396 110.897 4.00563 111.416 4.38896C111.931 4.7723 112.316 5.25008 112.567 5.82508L123.233 32.9056L133.899 5.82508C134.15 5.25008 134.535 4.7723 135.05 4.38896C135.566 4.00563 136.139 3.81396 136.766 3.81396H138.316C139.161 3.81396 139.882 4.12508 140.476 4.7473C141.071 5.36952 141.368 6.11119 141.368 6.9723V35.5362C141.368 36.1417 141.164 36.6529 140.757 37.0667C140.351 37.4806 139.849 37.689 139.254 37.689C138.659 37.689 138.149 37.4806 137.727 37.0667C137.304 36.6529 137.091 36.1417 137.091 35.5362V8.35841L126.236 35.6806C125.985 36.2862 125.587 36.7751 125.039 37.139C124.491 37.5056 123.888 37.689 123.23 37.689C122.573 37.689 121.97 37.5056 121.422 37.139C120.873 36.7723 120.475 36.2862 120.224 35.6806L109.372 8.35841V35.5362C109.372 36.1417 109.162 36.6529 108.737 37.0667C108.314 37.4806 107.804 37.689 107.209 37.689C106.617 37.689 106.115 37.4806 105.709 37.0667Z" fill="#00278A"/>
<path d="M152.978 36.8278C152.572 36.4139 152.367 35.9028 152.367 35.2973V6.25283C152.367 5.64727 152.572 5.12783 152.978 4.69727C153.385 4.26672 153.887 4.05005 154.481 4.05005H173.323C173.888 4.05005 174.365 4.25005 174.755 4.64727C175.145 5.04727 175.342 5.53338 175.342 6.1056C175.342 6.67783 175.145 7.15838 174.755 7.54172C174.363 7.92505 173.885 8.11672 173.323 8.11672H156.642V18.6945H171.632C172.197 18.6945 172.674 18.8945 173.064 19.2917C173.454 19.6917 173.651 20.1778 173.651 20.75C173.651 21.3223 173.454 21.8028 173.064 22.1862C172.671 22.5695 172.194 22.7612 171.632 22.7612H156.642V33.3834H173.323C173.888 33.3834 174.365 33.5834 174.755 33.9806C175.145 34.3806 175.342 34.8667 175.342 35.4389C175.342 36.0112 175.145 36.4917 174.755 36.875C174.363 37.2584 173.885 37.4501 173.323 37.4501H154.481C153.887 37.4501 153.385 37.2445 152.978 36.8278Z" fill="#00278A"/>
<path d="M184.838 37.0667C184.431 36.6529 184.227 36.1417 184.227 35.5362V6.9723C184.227 6.11119 184.524 5.36952 185.119 4.7473C185.713 4.12508 186.433 3.81396 187.279 3.81396H188.829C189.456 3.81396 190.026 4.00563 190.544 4.38896C191.06 4.7723 191.445 5.25008 191.696 5.82508L202.362 32.9056L213.028 5.82508C213.279 5.25008 213.664 4.7723 214.179 4.38896C214.695 4.00563 215.268 3.81396 215.895 3.81396H217.445C218.29 3.81396 219.01 4.12508 219.605 4.7473C220.2 5.36952 220.497 6.11119 220.497 6.9723V35.5362C220.497 36.1417 220.293 36.6529 219.886 37.0667C219.48 37.4806 218.978 37.689 218.383 37.689C217.788 37.689 217.278 37.4806 216.855 37.0667C216.433 36.6529 216.22 36.1417 216.22 35.5362V8.35841L205.365 35.6806C205.114 36.2862 204.716 36.7751 204.168 37.139C203.619 37.5056 203.017 37.689 202.359 37.689C201.702 37.689 201.099 37.5056 200.551 37.139C200.002 36.7723 199.604 36.2862 199.353 35.6806L188.499 8.35841V35.5362C188.499 36.1417 188.288 36.6529 187.863 37.0667C187.44 37.4806 186.93 37.689 186.335 37.689C185.743 37.689 185.244 37.4806 184.838 37.0667Z" fill="#00278A"/>
<g clip-path="url(#clip1_274_13007)">
<path d="M20.1412 20.5H0.5V37.1667C0.5 39 1.97309 40.5 3.77353 40.5H20.1412V20.5Z" fill="#4B710E"/>
<path d="M10.3206 10.5H0.5V20.5H10.3206V10.5Z" fill="#C2E489"/>
<path d="M20.1414 10.5H10.3208V20.5H20.1414V10.5Z" fill="#C2E489"/>
<path d="M20.1414 0.5H10.3208V10.5H20.1414V0.5Z" fill="#F5E211"/>
<path d="M10.3206 0.5H3.77353C1.97309 0.5 0.5 2 0.5 3.83333V10.5H10.3206V0.5Z" fill="#F9EE75"/>
<path d="M36.5087 0.5H20.1411V40.5H36.5087C38.3092 40.5 39.7823 39 39.7823 37.1667V3.83333C39.7823 2 38.3092 0.5 36.5087 0.5Z" fill="url(#paint0_linear_274_13007)"/>
<path d="M30.0979 10.4167H29.8251C29.1977 10.4167 28.6521 10.1944 28.1883 9.72222C27.7246 9.25 27.5063 8.69444 27.5063 8.05556V7.86111C27.5063 7.22222 27.7246 6.66667 28.1883 6.19444C28.6521 5.72222 29.1977 5.5 29.8251 5.5H30.0979C30.7253 5.5 31.2709 5.72222 31.7347 6.19444C32.1984 6.66667 32.4166 7.22222 32.4166 7.86111V8.05556C32.4166 8.69444 32.1984 9.25 31.7347 9.72222C31.2709 10.1667 30.7253 10.4167 30.0979 10.4167ZM29.9888 35.5C29.3068 35.5 28.7339 35.25 28.2429 34.7778C27.7519 34.3056 27.5063 33.7222 27.5063 33.0278V18.0278C27.5063 17.3056 27.7519 16.6944 28.2156 16.2222C28.6794 15.75 29.2795 15.5 29.9888 15.5C30.6708 15.5 31.2436 15.75 31.7074 16.25C32.1711 16.75 32.4166 17.3333 32.4166 18.0278V33.0278C32.4166 33.7222 32.1711 34.3056 31.7074 34.7778C31.2436 35.25 30.6708 35.5 29.9888 35.5Z" fill="white"/>
</g>
</g>
<defs>
<linearGradient id="paint0_linear_274_13007" x1="29.9617" y1="3.51125" x2="29.9617" y2="36.3979" gradientUnits="userSpaceOnUse">
<stop stop-color="#00278A"/>
<stop offset="1" stop-color="#5B7F20"/>
</linearGradient>
<clipPath id="clip0_274_13007">
<rect width="220" height="40" fill="white" transform="translate(0.5 0.5)"/>
</clipPath>
<clipPath id="clip1_274_13007">
<rect width="39.2823" height="40" fill="white" transform="translate(0.5 0.5)"/>
</clipPath>
</defs>
</svg>
