<svg width="146" height="27" viewBox="0 0 146 27" fill="none" xmlns="http://www.w3.org/2000/svg">
<g clip-path="url(#clip0_1207_4841)">
<path d="M39.9411 23.3303C39.6912 23.2263 39.4829 23.0548 39.3163 22.8156C39.1497 22.5765 39.0664 22.3218 39.0664 22.0515C39.0664 21.698 39.1862 21.3913 39.4257 21.1366C39.6652 20.8767 39.9724 20.7468 40.3421 20.7468C40.5503 20.7468 40.7482 20.7884 40.9356 20.8715C42.8465 21.724 44.8928 22.1451 47.0692 22.1451C50.7035 22.1451 52.5206 20.9547 52.5206 18.5688C52.5206 17.945 52.2863 17.4304 51.8177 17.0145C51.3491 16.5987 50.7764 16.2712 50.0891 16.0373C49.4018 15.7981 48.4281 15.5122 47.1629 15.1848C45.4811 14.7481 44.1222 14.3323 43.086 13.9268C42.0499 13.5214 41.1543 12.9184 40.4097 12.1075C39.6652 11.2965 39.2903 10.2205 39.2903 8.86902C39.2903 7.68904 39.6027 6.61302 40.2223 5.65137C40.8471 4.68971 41.7635 3.92038 42.9767 3.34859C44.1898 2.77679 45.6477 2.49609 47.3503 2.49609C49.6361 2.49609 51.698 2.83917 53.5464 3.52013C54.1295 3.72805 54.4159 4.14391 54.4159 4.76248C54.4159 5.09517 54.3013 5.39666 54.0723 5.66176C53.8432 5.93207 53.5412 6.06722 53.1715 6.06722C53.0465 6.06722 52.8799 6.02563 52.6716 5.94246C51.0523 5.38106 49.381 5.10556 47.6575 5.10556C46.0174 5.10556 44.6845 5.41745 43.6536 6.03603C42.6278 6.65981 42.1124 7.5279 42.1124 8.6455C42.1124 9.39403 42.3571 9.99701 42.8465 10.4648C43.3359 10.9327 43.9451 11.2966 44.6845 11.5513C45.4186 11.8112 46.4235 12.0867 47.6888 12.3778C49.3289 12.7728 50.6514 13.1679 51.6615 13.5577C52.6664 13.9528 53.5308 14.561 54.2441 15.3927C54.9626 16.2244 55.3167 17.342 55.3167 18.7507C55.3167 19.9099 54.9834 20.9547 54.3222 21.8748C53.6557 22.7948 52.7237 23.5174 51.5209 24.0372C50.3182 24.557 48.928 24.8169 47.3503 24.8169C44.7157 24.8221 42.2477 24.3231 39.9411 23.3303Z" fill="white"/>
<path d="M60.3099 4.95474C59.9975 4.64285 59.8413 4.26859 59.8413 3.83714V3.71239C59.8413 3.27574 59.9975 2.90148 60.3099 2.59479C60.6223 2.2829 60.9972 2.12695 61.4294 2.12695H61.6168C62.0542 2.12695 62.4291 2.2829 62.7363 2.59479C63.0435 2.90667 63.2049 3.28094 63.2049 3.71239V3.83714C63.2049 4.27379 63.0487 4.64805 62.7363 4.95474C62.4239 5.26143 62.049 5.42258 61.6168 5.42258H61.4294C60.992 5.41738 60.6223 5.26663 60.3099 4.95474ZM60.4974 24.2606C60.2266 23.9903 60.0912 23.6577 60.0912 23.2678V9.92937C60.0912 9.53431 60.2266 9.19643 60.4974 8.92093C60.7681 8.64023 61.1013 8.49988 61.4918 8.49988C61.9084 8.49988 62.252 8.63503 62.5176 8.90533C62.7883 9.17564 62.9237 9.51871 62.9237 9.92937V23.2678C62.9237 23.6629 62.7831 23.9955 62.502 24.2606C62.2208 24.531 61.8823 24.6661 61.4918 24.6661C61.0961 24.6661 60.7629 24.531 60.4974 24.2606Z" fill="white"/>
<path d="M69.7445 24.2605C69.4738 23.9902 69.3384 23.6576 69.3384 23.2677V4.70512C69.3384 4.14372 69.5362 3.66549 69.9319 3.26004C70.3277 2.85458 70.8015 2.65186 71.3638 2.65186H72.3895C72.8061 2.65186 73.181 2.77661 73.5246 3.02612C73.8683 3.27563 74.1234 3.58752 74.29 3.95659L81.3608 21.5523L88.4315 3.95659C88.5981 3.58232 88.8533 3.27043 89.1969 3.02612C89.5406 2.78181 89.9154 2.65186 90.332 2.65186H91.3577C91.92 2.65186 92.3939 2.85458 92.7896 3.26004C93.1853 3.66549 93.3831 4.14372 93.3831 4.70512V23.2677C93.3831 23.6628 93.2478 23.9954 92.977 24.2605C92.7063 24.5308 92.373 24.666 91.9825 24.666C91.5868 24.666 91.2484 24.5308 90.9724 24.2605C90.6912 23.9902 90.5507 23.6576 90.5507 23.2677V5.6044L83.3549 23.3561C83.1883 23.7511 82.9228 24.0682 82.5583 24.3021C82.1938 24.5412 81.7929 24.6608 81.3608 24.6608C80.9234 24.6608 80.5225 24.5412 80.1632 24.3021C79.7987 24.063 79.5332 23.7459 79.3666 23.3561L72.1761 5.6044V23.2677C72.1761 23.6628 72.0355 23.9954 71.7543 24.2605C71.4731 24.5256 71.1347 24.666 70.7442 24.666C70.3485 24.666 70.0153 24.5308 69.7445 24.2605Z" fill="white"/>
<path d="M101.074 24.1046C100.803 23.8343 100.667 23.5016 100.667 23.1117V4.24248C100.667 3.84742 100.803 3.50954 101.074 3.23404C101.344 2.95334 101.678 2.81299 102.068 2.81299H114.554C114.929 2.81299 115.241 2.94294 115.501 3.20285C115.762 3.46276 115.892 3.77984 115.892 4.14891C115.892 4.51798 115.762 4.83507 115.501 5.07938C115.241 5.32889 114.924 5.45365 114.554 5.45365H103.5V12.3256H113.434C113.809 12.3256 114.127 12.4555 114.382 12.7155C114.642 12.9754 114.773 13.2924 114.773 13.6615C114.773 14.0306 114.642 14.3477 114.382 14.592C114.122 14.8415 113.804 14.9662 113.434 14.9662H103.5V21.8642H114.554C114.929 21.8642 115.241 21.9941 115.501 22.254C115.762 22.514 115.892 22.831 115.892 23.2001C115.892 23.5744 115.762 23.8863 115.501 24.1306C115.241 24.3801 114.924 24.5048 114.554 24.5048H102.068C101.672 24.51 101.344 24.3749 101.074 24.1046Z" fill="white"/>
<path d="M122.187 24.2605C121.916 23.9902 121.781 23.6576 121.781 23.2677V4.70512C121.781 4.14372 121.979 3.66549 122.374 3.26004C122.77 2.85458 123.244 2.65186 123.806 2.65186H124.832C125.248 2.65186 125.623 2.77661 125.967 3.02612C126.311 3.27563 126.566 3.58752 126.732 3.95659L133.803 21.5523L140.874 3.95659C141.041 3.58232 141.296 3.27043 141.639 3.02612C141.983 2.77661 142.358 2.65186 142.774 2.65186H143.8C144.362 2.65186 144.836 2.85458 145.232 3.26004C145.628 3.66549 145.826 4.14372 145.826 4.70512V23.2677C145.826 23.6628 145.69 23.9954 145.419 24.2605C145.149 24.5308 144.815 24.666 144.425 24.666C144.029 24.666 143.691 24.5308 143.415 24.2605C143.134 23.9902 142.993 23.6576 142.993 23.2677V5.6044L135.792 23.3561C135.626 23.7511 135.36 24.0682 134.995 24.3021C134.631 24.5412 134.23 24.6608 133.798 24.6608C133.366 24.6608 132.96 24.5412 132.6 24.3021C132.236 24.063 131.97 23.7459 131.804 23.3561L124.613 5.6044V23.2677C124.613 23.6628 124.473 23.9954 124.191 24.2605C123.91 24.5256 123.572 24.666 123.181 24.666C122.786 24.666 122.458 24.5308 122.187 24.2605Z" fill="white"/>
<path opacity="0.8" d="M13.0379 13.4954H0.0209961V24.3231C0.0209961 25.5187 0.989451 26.4907 2.187 26.4907H13.0327V13.4954H13.0379Z" fill="white"/>
<path opacity="0.6" d="M6.52943 6.99756H0.0209961V13.4952H6.52943H13.0379V6.99756H6.52943Z" fill="white"/>
<path opacity="0.4" d="M13.0377 0.5H6.5293V6.99768H13.0377V0.5Z" fill="white"/>
<path opacity="0.2" d="M6.52943 0.5H1.104C0.505224 0.5 0.0209961 0.983427 0.0209961 1.58121V6.99768H6.52943V0.5Z" fill="white"/>
<path d="M23.8837 0.5H13.0381V26.4907H23.8837C25.0813 26.4907 26.055 25.5187 26.055 24.3231V2.66763C26.055 1.47205 25.0813 0.5 23.8837 0.5ZM21.171 21.6357C21.171 22.0879 21.0148 22.4674 20.7076 22.7792C20.4004 23.0859 20.0151 23.2419 19.5621 23.2419C19.1092 23.2419 18.7239 23.0859 18.401 22.7792C18.0782 22.4726 17.9168 22.0879 17.9168 21.6357V11.8891C17.9168 11.4109 18.073 11.021 18.3802 10.7092C18.6926 10.4025 19.0831 10.2465 19.5621 10.2465C20.0151 10.2465 20.3952 10.4077 20.7076 10.7299C21.02 11.0522 21.171 11.4369 21.171 11.8891V21.6357ZM21.171 5.40185C21.171 5.8229 21.02 6.18157 20.718 6.48306C20.416 6.78456 20.0568 6.9353 19.635 6.9353H19.4528C19.0311 6.9353 18.6718 6.78456 18.3698 6.48306C18.0678 6.18157 17.9168 5.8229 17.9168 5.40185V5.28229C17.9168 4.86124 18.0678 4.50257 18.3698 4.20108C18.6718 3.89959 19.0311 3.74884 19.4528 3.74884H19.635C20.0568 3.74884 20.416 3.89959 20.718 4.20108C21.02 4.50257 21.171 4.86124 21.171 5.28229V5.40185Z" fill="white"/>
</g>
<defs>
<clipPath id="clip0_1207_4841">
<rect width="145.854" height="26" fill="white" transform="translate(0 0.5)"/>
</clipPath>
</defs>
</svg>
