<svg width="74" height="74" viewBox="0 0 74 74" fill="none" xmlns="http://www.w3.org/2000/svg">
<g id="admiracion circulo relleno">
<path id="Vector" d="M36.9998 69.8337C55.135 69.8337 69.8332 55.1355 69.8332 37.0003C69.8332 18.8652 55.135 4.16699 36.9998 4.16699C18.8647 4.16699 4.1665 18.8652 4.1665 37.0003C4.1665 55.1355 18.8647 69.8337 36.9998 69.8337ZM36.9998 23.5837C37.4972 23.5837 37.8905 23.977 37.8905 24.4743V37.9639C37.8905 38.4612 37.4972 38.8545 36.9998 38.8545C36.5025 38.8545 36.1092 38.4612 36.1092 37.9639V24.4743C36.1092 23.977 36.5025 23.5837 36.9998 23.5837ZM38.854 48.5628C38.854 49.5901 38.0271 50.417 36.9998 50.417C35.9726 50.417 35.1457 49.5901 35.1457 48.5628C35.1457 47.5356 35.9726 46.7087 36.9998 46.7087C38.0271 46.7087 38.854 47.5356 38.854 48.5628Z" stroke="#FF6A13" stroke-width="4"/>
</g>
</svg>
