<svg width="16" height="14" viewBox="0 0 16 14" fill="none" xmlns="http://www.w3.org/2000/svg">
<path d="M8.8 3.47051C8.8 5.31166 7.3675 6.80384 5.6 6.80384C3.8325 6.80384 2.4 5.31166 2.4 3.47051C2.4 1.62936 3.8325 0.137177 5.6 0.137177C7.3675 0.137177 8.8 1.62936 8.8 3.47051ZM0 12.6971C0 10.132 1.995 8.05384 4.4575 8.05384H6.7425C9.205 8.05384 11.2 10.132 11.2 12.6971C11.2 13.1242 10.8675 13.4705 10.4575 13.4705H0.7425C0.3325 13.4705 0 13.1242 0 12.6971ZM15.2325 13.4705H11.785C11.92 13.2257 12 12.9419 12 12.6372V12.4288C12 10.8481 11.3225 9.42884 10.255 8.47572C10.315 8.47311 10.3725 8.47051 10.4325 8.47051H11.9675C14.195 8.47051 16 10.3507 16 12.671C16 13.1137 15.655 13.4705 15.2325 13.4705ZM10.8 6.80384C10.025 6.80384 9.325 6.47572 8.8175 5.94707C9.31 5.25436 9.6 4.39759 9.6 3.47051C9.6 2.77259 9.435 2.11374 9.1425 1.53561C9.6075 1.18145 10.18 0.97051 10.8 0.97051C12.3475 0.97051 13.6 2.2752 13.6 3.88718C13.6 5.49916 12.3475 6.80384 10.8 6.80384Z" fill="white"/>
</svg>
