<svg width="12" height="14" viewBox="0 0 12 14" fill="none" xmlns="http://www.w3.org/2000/svg">
<path d="M3.33268 6.80381V5.47048H8.66602V6.80381H3.33268ZM3.33268 4.13715V2.80381H8.66602V4.13715H3.33268ZM1.99935 8.13715H6.99935C7.32157 8.13715 7.62157 8.20648 7.89935 8.34515C8.17713 8.48426 8.41046 8.68159 8.59935 8.93715L9.99935 10.7705V1.47048H1.99935V8.13715ZM1.99935 12.1371H9.36601L7.54935 9.75381C7.48268 9.66492 7.40224 9.59559 7.30802 9.54581C7.21335 9.49559 7.11046 9.47048 6.99935 9.47048H1.99935V12.1371ZM9.99935 13.4705H1.99935C1.63268 13.4705 1.3189 13.34 1.05802 13.0791C0.796682 12.8178 0.666016 12.5038 0.666016 12.1371V1.47048C0.666016 1.10381 0.796682 0.789813 1.05802 0.528479C1.3189 0.26759 1.63268 0.137146 1.99935 0.137146H9.99935C10.366 0.137146 10.68 0.26759 10.9413 0.528479C11.2022 0.789813 11.3327 1.10381 11.3327 1.47048V12.1371C11.3327 12.5038 11.2022 12.8178 10.9413 13.0791C10.68 13.34 10.366 13.4705 9.99935 13.4705Z" fill="white"/>
</svg>
