<svg width="14" height="18" viewBox="0 0 14 18" fill="none" xmlns="http://www.w3.org/2000/svg">
<path d="M0.742188 0.0777303C1.04102 -0.0593791 1.39258 -0.0101604 1.64219 0.204293L3.0625 1.4207L4.48281 0.204293C4.79922 -0.0664104 5.2668 -0.0664104 5.57969 0.204293L7 1.4207L8.42031 0.204293C8.73672 -0.0664104 9.2043 -0.0664104 9.51719 0.204293L10.9375 1.4207L12.3578 0.204293C12.6074 -0.0101604 12.959 -0.0593791 13.2578 0.0777303C13.5566 0.21484 13.75 0.513668 13.75 0.844137V17.1566C13.75 17.4871 13.5566 17.7859 13.2578 17.923C12.959 18.0602 12.6074 18.0109 12.3578 17.7965L10.9375 16.5801L9.51719 17.7965C9.20078 18.0672 8.7332 18.0672 8.42031 17.7965L7 16.5801L5.57969 17.7965C5.26328 18.0672 4.7957 18.0672 4.48281 17.7965L3.0625 16.5801L1.64219 17.7965C1.39258 18.0109 1.04102 18.0602 0.742188 17.923C0.443359 17.7859 0.25 17.4871 0.25 17.1566V0.844137C0.25 0.513668 0.443359 0.21484 0.742188 0.0777303ZM3.625 5.06289C3.31562 5.06289 3.0625 5.31601 3.0625 5.62539C3.0625 5.93476 3.31562 6.18789 3.625 6.18789H10.375C10.6844 6.18789 10.9375 5.93476 10.9375 5.62539C10.9375 5.31601 10.6844 5.06289 10.375 5.06289H3.625ZM3.0625 12.3754C3.0625 12.6848 3.31562 12.9379 3.625 12.9379H10.375C10.6844 12.9379 10.9375 12.6848 10.9375 12.3754C10.9375 12.066 10.6844 11.8129 10.375 11.8129H3.625C3.31562 11.8129 3.0625 12.066 3.0625 12.3754ZM3.625 8.43789C3.31562 8.43789 3.0625 8.69101 3.0625 9.00039C3.0625 9.30976 3.31562 9.56289 3.625 9.56289H10.375C10.6844 9.56289 10.9375 9.30976 10.9375 9.00039C10.9375 8.69101 10.6844 8.43789 10.375 8.43789H3.625Z" fill="white"/>
</svg>
