<svg width="16" height="12" viewBox="0 0 16 12" fill="none" xmlns="http://www.w3.org/2000/svg">
<path d="M1.99935 11.3333C1.63268 11.3333 1.3189 11.2029 1.05802 10.942C0.796682 10.6807 0.666016 10.3667 0.666016 10C0.666016 9.63333 0.796682 9.31933 1.05802 9.058C1.3189 8.79711 1.63268 8.66667 1.99935 8.66667H2.17468C2.22446 8.66667 2.27713 8.67778 2.33268 8.7L5.36602 5.66667C5.34379 5.61111 5.33268 5.55822 5.33268 5.508V5.33333C5.33268 4.96667 5.46335 4.65267 5.72468 4.39133C5.98557 4.13044 6.29935 4 6.66602 4C7.03268 4 7.34668 4.13044 7.60802 4.39133C7.8689 4.65267 7.99935 4.96667 7.99935 5.33333C7.99935 5.35556 7.98824 5.46667 7.96602 5.66667L9.66602 7.36667C9.72157 7.34444 9.77446 7.33333 9.82468 7.33333H10.174C10.2242 7.33333 10.2771 7.34444 10.3327 7.36667L12.6993 5C12.6771 4.94444 12.666 4.89156 12.666 4.84133V4.66667C12.666 4.3 12.7965 3.986 13.0573 3.72467C13.3187 3.46378 13.6327 3.33333 13.9993 3.33333C14.366 3.33333 14.68 3.46378 14.9413 3.72467C15.2022 3.986 15.3327 4.3 15.3327 4.66667C15.3327 5.03333 15.2022 5.34711 14.9413 5.608C14.68 5.86933 14.366 6 13.9993 6H13.8247C13.7745 6 13.7216 5.98889 13.666 5.96667L11.2993 8.33333C11.3216 8.38889 11.3327 8.44178 11.3327 8.492V8.66667C11.3327 9.03333 11.2022 9.34733 10.9413 9.60867C10.68 9.86956 10.366 10 9.99935 10C9.63268 10 9.3189 9.86956 9.05802 9.60867C8.79668 9.34733 8.66602 9.03333 8.66602 8.66667V8.492C8.66602 8.44178 8.67713 8.38889 8.69935 8.33333L6.99935 6.63333C6.94379 6.65556 6.8909 6.66667 6.84068 6.66667H6.66602C6.64379 6.66667 6.53268 6.65556 6.33268 6.63333L3.29935 9.66667C3.32157 9.72222 3.33268 9.77511 3.33268 9.82533V10C3.33268 10.3667 3.20202 10.6807 2.94068 10.942C2.67979 11.2029 2.36602 11.3333 1.99935 11.3333ZM2.66602 4.65L2.24935 3.75L1.34935 3.33333L2.24935 2.91667L2.66602 2.01667L3.08268 2.91667L3.98268 3.33333L3.08268 3.75L2.66602 4.65ZM9.99935 4L9.36602 2.63333L7.99935 2L9.36602 1.36667L9.99935 0L10.6327 1.36667L11.9993 2L10.6327 2.63333L9.99935 4Z" fill="white"/>
</svg>
