<svg width="14" height="15" viewBox="0 0 14 15" fill="none" xmlns="http://www.w3.org/2000/svg">
<path d="M9.33333 9.4705C8.77778 9.4705 8.30556 9.27605 7.91667 8.88717C7.52778 8.49828 7.33333 8.02605 7.33333 7.4705C7.33333 6.91494 7.52778 6.44272 7.91667 6.05383C8.30556 5.66494 8.77778 5.4705 9.33333 5.4705C9.88889 5.4705 10.3611 5.66494 10.75 6.05383C11.1389 6.44272 11.3333 6.91494 11.3333 7.4705C11.3333 8.02605 11.1389 8.49828 10.75 8.88717C10.3611 9.27605 9.88889 9.4705 9.33333 9.4705ZM9.33333 8.13717C9.52222 8.13717 9.68044 8.07317 9.808 7.94517C9.936 7.81761 10 7.65939 10 7.4705C10 7.28161 9.936 7.12317 9.808 6.99517C9.68044 6.86761 9.52222 6.80383 9.33333 6.80383C9.14444 6.80383 8.98622 6.86761 8.85867 6.99517C8.73067 7.12317 8.66667 7.28161 8.66667 7.4705C8.66667 7.65939 8.73067 7.81761 8.85867 7.94517C8.98622 8.07317 9.14444 8.13717 9.33333 8.13717ZM6 14.1372C5.81111 14.1372 5.65289 14.0732 5.52533 13.9452C5.39733 13.8176 5.33333 13.6594 5.33333 13.4705V12.2038C5.33333 11.9705 5.38889 11.7509 5.5 11.5452C5.61111 11.3398 5.76667 11.1761 5.96667 11.0538C6.32222 10.8427 6.62222 10.6954 6.86667 10.6118C7.11111 10.5287 7.43889 10.4538 7.85 10.3872C7.98333 10.3649 8.11667 10.3676 8.25 10.3952C8.38333 10.4232 8.49444 10.4872 8.58333 10.5872L9.33333 11.4705L10.0667 10.5872C10.1556 10.4761 10.2667 10.4094 10.4 10.3872C10.5333 10.3649 10.6667 10.3649 10.8 10.3872C11.2111 10.4538 11.5389 10.5287 11.7833 10.6118C12.0278 10.6954 12.3278 10.8427 12.6833 11.0538C12.8833 11.1761 13.0418 11.3398 13.1587 11.5452C13.2751 11.7509 13.3333 11.9705 13.3333 12.2038V13.4705C13.3333 13.6594 13.2693 13.8176 13.1413 13.9452C13.0138 14.0732 12.8556 14.1372 12.6667 14.1372H6ZM6.65 12.8038H8.7L7.8 11.7038C7.6 11.7594 7.40555 11.8316 7.21667 11.9205C7.02778 12.0094 6.83889 12.1038 6.65 12.2038V12.8038ZM9.96667 12.8038H12V12.2038C11.8222 12.0927 11.6389 11.9956 11.45 11.9125C11.2611 11.8289 11.0667 11.7594 10.8667 11.7038L9.96667 12.8038ZM1.33333 11.4705V2.13717V4.4205V4.13717V11.4705ZM1.33333 12.8038C0.966667 12.8038 0.652667 12.6734 0.391333 12.4125C0.130444 12.1512 0 11.8372 0 11.4705V2.13717C0 1.7705 0.130444 1.4565 0.391333 1.19517C0.652667 0.934277 0.966667 0.803833 1.33333 0.803833H10.6667C11.0333 0.803833 11.3473 0.934277 11.6087 1.19517C11.8696 1.4565 12 1.7705 12 2.13717V5.4705C11.8222 5.24828 11.6278 5.03717 11.4167 4.83717C11.2056 4.63717 10.9556 4.50383 10.6667 4.43717V2.13717H1.33333V11.4705H4.1C4.06667 11.5927 4.04178 11.7149 4.02533 11.8372C4.00844 11.9594 4 12.0816 4 12.2038V12.8038H1.33333ZM3.33333 4.80383H7.33333C7.62222 4.58161 7.93889 4.41494 8.28333 4.30383C8.62778 4.19272 8.97778 4.13717 9.33333 4.13717C9.33333 3.94828 9.26933 3.78983 9.14133 3.66183C9.01378 3.53428 8.85556 3.4705 8.66667 3.4705H3.33333C3.14444 3.4705 2.986 3.53428 2.858 3.66183C2.73044 3.78983 2.66667 3.94828 2.66667 4.13717C2.66667 4.32606 2.73044 4.48428 2.858 4.61183C2.986 4.73983 3.14444 4.80383 3.33333 4.80383ZM3.33333 7.4705H6C6 7.23717 6.02511 7.00939 6.07533 6.78717C6.12511 6.56494 6.19444 6.34828 6.28333 6.13717H3.33333C3.14444 6.13717 2.986 6.20094 2.858 6.3285C2.73044 6.4565 2.66667 6.61494 2.66667 6.80383C2.66667 6.99272 2.73044 7.15094 2.858 7.2785C2.986 7.4065 3.14444 7.4705 3.33333 7.4705ZM3.33333 10.1372H4.96667C5.08889 10.0372 5.21956 9.94828 5.35867 9.8705C5.49733 9.79272 5.63889 9.7205 5.78333 9.65383V9.4705C5.78333 9.29272 5.73622 9.13717 5.642 9.00383C5.54733 8.8705 5.37222 8.80383 5.11667 8.80383H3.33333C3.14444 8.80383 2.986 8.86761 2.858 8.99517C2.73044 9.12317 2.66667 9.28161 2.66667 9.4705C2.66667 9.65939 2.73044 9.81761 2.858 9.94517C2.986 10.0732 3.14444 10.1372 3.33333 10.1372Z" fill="white"/>
</svg>
