<svg width="570" height="250" viewBox="0 0 570 250" fill="none" xmlns="http://www.w3.org/2000/svg">
<path d="M568.15 172.8C568.15 169.55 567.15 166.4 565.3 163.55L564.9 162.95L519.65 93.3C516.55 88.55 511.45 85.55 505.85 85.15C505.85 84.85 505.85 84.6 505.85 84.3C505.85 79.05 504.4 73.7 501.4 69.05L464.15 11.8C459.45 4.45 451.35 0 442.65 0C436.85 0 431.25 1.95 426.65 5.55L347.55 67.35C342.1 71.65 338.65 77.7 337.4 84.15C337.4 78.95 335.95 73.7 332.95 69.1L295.7 11.85C290.95 4.5 282.85 0 274.15 0C268.35 0 262.75 1.95 258.15 5.55L179.05 67.35C173.85 71.45 170.5 77.1 169.1 83.2C168.9 78.3 167.5 73.4 164.7 69.05L127.45 11.8C122.65 4.45 114.55 0 105.85 0C100.05 0 94.45 1.95 89.85 5.55L89.95 5.45L10.75 67.4C3.7 72.9 0 81.45 0 89.95C0 95.2 1.4 100.55 4.45 105.2L41.7 162.45C45.35 168.1 50.95 172.05 57.3 173.55C57.3 173.7 57.3 173.85 57.3 173.95C57.3 175.95 57.7 177.5 58.05 178.4C58.5 179.65 59.5 182 61.9 184.15C63.1 185.2 64.6 186.2 66.45 186.9C68.3 187.6 70.4 188 72.8 188H78.65C81.85 188 85.1 187.3 88.25 186.25C91.4 185.15 94.35 183.7 96.85 181.75L115.6 167.1C115.6 167.1 115.8 167 116.05 166.85C116.5 166.65 117.1 166.45 117.6 166.3C117.85 166.25 118.05 166.2 118.2 166.15H118.35H182.65L190 177.4C192.15 180.65 195.15 183.2 198.55 185.05C201.95 186.85 205.7 188 209.6 188H215.45C218.4 188 221.25 187.3 223.75 185.95C225.5 185 227.1 183.65 228.35 182C228.85 182.7 229.5 183.45 230.25 184.15C231.45 185.2 232.95 186.2 234.8 186.9C236.65 187.6 238.75 188 241.15 188H247C250.2 188 253.45 187.3 256.6 186.25C259.75 185.15 262.7 183.7 265.2 181.75L265.05 181.9L284 167.1C284 167.1 284.2 167 284.45 166.85C284.9 166.65 285.5 166.45 285.95 166.3C286.2 166.25 286.4 166.2 286.55 166.15H286.7H351L358.35 177.4C360.5 180.65 363.5 183.2 366.9 185.05C370.3 186.9 374.05 188 377.95 188H383.8C386.75 188 389.6 187.3 392.1 185.95C393.85 185 395.45 183.65 396.7 182C397.2 182.7 397.85 183.45 398.65 184.15C399.85 185.2 401.35 186.2 403.2 186.9C405.05 187.6 407.15 188 409.55 188H415.4C418.6 188 421.85 187.3 425 186.25C428.15 185.15 431.1 183.7 433.6 181.75L452.35 167.1C452.35 167.1 452.55 167 452.8 166.85C453.2 166.65 453.85 166.45 454.3 166.3C454.55 166.25 454.8 166.2 454.9 166.15H455.05H519.3L526.4 177L526.65 177.35C528.8 180.6 531.8 183.15 535.2 185C538.6 186.8 542.35 187.95 546.25 187.95H552.1C555.05 187.95 557.9 187.25 560.4 185.9C562.9 184.55 565 182.5 566.4 179.9C567.6 177.7 568.2 175.2 568.2 172.75" fill="white"/>
<path d="M301.35 232.45H294.6V239H301.35V232.45Z" fill="#0078BF"/>
<path d="M346 232.45H339.25V239H346V232.45Z" fill="#0078BF"/>
<path d="M401.35 232.45H394.6V239H401.35V232.45Z" fill="#0078BF"/>
<path d="M444.25 232.45H437.5V239H444.25V232.45Z" fill="#0078BF"/>
<path d="M477.45 232.45H470.7V239H477.45V232.45Z" fill="#0078BF"/>
<path d="M96.9 238.999V212.649H87.05V206.899H113.45V212.649H103.7V238.999H96.9Z" fill="#0078BF"/>
<path d="M112.4 239V215.35H118.45V219.4C119.3 217.75 120.3 216.6 121.45 215.8C122.6 215.05 123.95 214.65 125.5 214.65C125.75 214.65 125.95 214.65 126.1 214.65H126.45V221.1H124.3C122.5 221.1 121.2 221.55 120.3 222.45C119.4 223.35 118.95 224.7 118.95 226.45V238.95H112.4V239Z" fill="#0078BF"/>
<path d="M129.8 215.299H136.35V238.949H129.8V215.299ZM129.8 206.899H136.35V212.649H129.8V206.899Z" fill="#0078BF"/>
<path d="M159 227.3C159 224.9 158.55 223.1 157.6 221.85C156.65 220.6 155.3 219.95 153.55 219.95C151.8 219.95 150.5 220.55 149.6 221.85C148.7 223.1 148.25 224.9 148.25 227.3C148.25 229.55 148.75 231.25 149.7 232.5C150.65 233.7 152 234.3 153.75 234.3C155.4 234.3 156.7 233.7 157.65 232.45C158.6 231.2 159.05 229.5 159.05 227.3M141.95 248.5V215.35H148.15V218.55C149.1 217.15 150.15 216.15 151.3 215.5C152.45 214.85 153.85 214.55 155.4 214.55C158.4 214.55 160.85 215.7 162.7 218C164.55 220.3 165.5 223.35 165.5 227.05C165.5 230.75 164.55 233.9 162.7 236.25C160.8 238.6 158.4 239.8 155.45 239.8C153.9 239.8 152.5 239.5 151.3 238.85C150.1 238.2 149.05 237.3 148.25 236.05V248.5H141.9H141.95Z" fill="#0078BF"/>
<path d="M176.3 206.899H169.75V238.999H176.3V206.899Z" fill="#0078BF"/>
<path d="M187.3 224.65H196.9C196.85 223.05 196.4 221.85 195.6 221C194.8 220.15 193.6 219.75 192.1 219.75C190.7 219.75 189.55 220.15 188.75 221C187.95 221.85 187.45 223.05 187.3 224.65ZM196.8 231.8H203.3C202.65 234.3 201.3 236.249 199.3 237.649C197.3 239.049 194.85 239.799 192 239.799C188.45 239.799 185.65 238.65 183.6 236.35C181.55 234.05 180.5 230.95 180.5 227C180.5 223.05 181.5 220.05 183.55 217.85C185.6 215.6 188.35 214.5 191.9 214.5C195.65 214.5 198.55 215.6 200.6 217.8C202.65 220 203.65 223.149 203.65 227.199C203.65 227.649 203.65 228 203.65 228.2C203.65 228.4 203.65 228.65 203.6 228.85H187.3C187.4 230.7 187.85 232.1 188.7 233.05C189.55 234 190.75 234.45 192.35 234.45C193.45 234.45 194.4 234.249 195.1 233.799C195.8 233.349 196.4 232.7 196.8 231.8Z" fill="#0078BF"/>
<path d="M233.1 213.349L228.5 226.999H237.7L233.1 213.349ZM229.15 206.949H237L248.95 239.049H241.8L239.55 232.449H226.7L224.5 239.049H217.35L229.1 206.949H229.15Z" fill="#0078BF"/>
<path d="M263.05 229.05H269.75C270 230.8 270.75 232.1 271.95 232.95C273.2 233.8 274.95 234.25 277.3 234.25C279.3 234.25 280.75 233.9 281.75 233.25C282.75 232.55 283.25 231.55 283.25 230.25C283.25 228.3 280.35 226.7 274.6 225.4H274.4C274.4 225.4 274 225.3 273.7 225.2C270.6 224.55 268.4 223.8 267.1 223C265.95 222.25 265.05 221.3 264.45 220.05C263.85 218.85 263.55 217.4 263.55 215.7C263.55 212.6 264.65 210.2 266.85 208.55C269.05 206.9 272.2 206.05 276.35 206.05C280.2 206.05 283.25 206.95 285.4 208.7C287.55 210.45 288.7 212.95 288.85 216.2H282.3C282.2 214.65 281.55 213.45 280.45 212.65C279.35 211.85 277.75 211.45 275.7 211.45C273.9 211.45 272.55 211.8 271.6 212.45C270.65 213.15 270.15 214.1 270.15 215.35C270.15 217.05 272.05 218.3 275.8 219.15C276.8 219.4 277.6 219.55 278.2 219.7C280.6 220.3 282.3 220.75 283.35 221.1C284.35 221.45 285.25 221.8 286 222.2C287.35 222.95 288.35 223.9 289.05 225.1C289.7 226.3 290.05 227.75 290.05 229.4C290.05 232.75 288.9 235.3 286.55 237.15C284.25 239 280.95 239.9 276.75 239.9C272.55 239.9 269.3 238.95 266.95 237.1C264.6 235.25 263.3 232.55 263.15 229.1" fill="#0078BF"/>
<path d="M319.85 213.349L315.25 226.999H324.45L319.85 213.349ZM315.9 206.949H323.75L335.7 239.049H328.55L326.3 232.449H313.5L311.3 239.049H304.15L315.9 206.949Z" fill="#0078BF"/>
<path d="M364.85 238.999V206.899H388.9V212.499H371.55V219.299H387.4V224.799H371.55V233.049H389.7V238.999H364.85Z" fill="#0078BF"/>
<path d="M406 229.05H412.7C412.95 230.8 413.7 232.1 414.9 232.95C416.15 233.8 417.9 234.25 420.25 234.25C422.2 234.25 423.7 233.9 424.7 233.25C425.7 232.55 426.2 231.55 426.2 230.25C426.2 228.3 423.3 226.7 417.55 225.4H417.35C417.35 225.4 416.95 225.3 416.65 225.2C413.55 224.55 411.35 223.8 410.05 223C408.9 222.25 408 221.3 407.35 220.05C406.75 218.85 406.45 217.4 406.45 215.7C406.45 212.6 407.55 210.2 409.75 208.55C411.95 206.9 415.1 206.05 419.25 206.05C423.1 206.05 426.15 206.95 428.3 208.7C430.5 210.45 431.65 212.95 431.75 216.2H425.2C425.1 214.65 424.45 213.45 423.35 212.65C422.25 211.85 420.65 211.45 418.6 211.45C416.8 211.45 415.45 211.8 414.5 212.45C413.55 213.15 413.05 214.1 413.05 215.35C413.05 217.05 414.95 218.3 418.7 219.15C419.7 219.4 420.5 219.55 421.1 219.7C423.5 220.3 425.2 220.75 426.25 221.1C427.25 221.45 428.15 221.8 428.9 222.2C430.25 222.95 431.25 223.9 431.95 225.1C432.6 226.3 432.95 227.75 432.95 229.4C432.95 232.75 431.8 235.3 429.45 237.15C427.15 239 423.85 239.9 419.65 239.9C415.45 239.9 412.2 238.95 409.85 237.1C407.5 235.25 406.2 232.55 406.05 229.1" fill="#0078BF"/>
<path d="M457.35 221.751H463.95C465.75 221.751 467.05 221.401 467.85 220.651C468.65 219.901 469.05 218.751 469.05 217.101C469.05 215.551 468.65 214.401 467.85 213.651C467.05 212.851 465.85 212.501 464.3 212.501H457.35V221.751ZM457.35 227.551V238.951H450.55V206.851H465.25C468.7 206.851 471.35 207.751 473.15 209.501C474.95 211.251 475.85 213.801 475.85 217.201C475.85 220.601 474.95 223.051 473.2 224.851C471.45 226.651 468.95 227.551 465.7 227.551H457.35Z" fill="#0078BF"/>
<path d="M561.15 166.25L515.55 95.9999C513.1 92.2499 509.05 90.0499 504.65 90.0499C503.05 90.0499 501.55 90.3499 500.1 90.8999C501.85 84.5499 501.05 77.4999 497.35 71.7999L460.1 14.5499C456.2 8.5499 449.7 4.9499 442.65 4.9499C437.95 4.9499 433.5 6.4999 429.7 9.4499L350.6 71.2499C344.45 76.0499 341.35 83.7999 341.8 91.2999C340.1 90.4999 338.2 89.9999 336.25 89.9999C334.6 89.9999 333 90.3499 331.5 90.9499C333.3 84.5999 332.5 77.4999 328.8 71.7499L291.55 14.4999C287.65 8.4999 281.15 4.8999 274.15 4.8999C269.45 4.8999 265 6.4499 261.2 9.3999L182.1 71.1999C176 75.9999 172.9 83.6499 173.3 91.1999C171.65 90.4499 169.8 89.9999 167.95 89.9999C166.35 89.9999 164.75 90.3499 163.25 90.8999C165.05 84.5499 164.25 77.4499 160.55 71.7499L123.3 14.4999C119.4 8.4999 112.9 4.8999 105.85 4.8999C101.15 4.8999 96.7 6.4499 92.9 9.3999L13.8 71.2499C4.50001 78.5499 2.15001 92.5499 8.60001 102.45L45.85 159.7C49.75 165.7 56.25 169.3 63.3 169.3C63.35 169.3 63.45 169.3 63.55 169.3C61.6 172.65 62.35 175.7 62.75 176.8C63.25 178.25 65.45 183.05 72.8 183.05H78.65C83.55 183.05 89.95 180.85 93.8 177.85L112.6 163.15C113.75 162.25 116.8 161.2 118.25 161.2H183.6C184.3 161.2 185.75 162.05 186.15 162.6L194.05 174.7C197.2 179.55 203.7 183.05 209.5 183.05H215.35C219.75 183.05 223.45 181 225.3 177.6C226.8 174.85 226.85 171.5 225.55 168.4C227.45 169 229.5 169.35 231.55 169.35C231.65 169.35 231.75 169.35 231.85 169.35C229.9 172.7 230.65 175.75 231.05 176.85C231.55 178.3 233.75 183.1 241.1 183.1H246.95C251.85 183.1 258.25 180.9 262.1 177.9L280.9 163.2C282.05 162.3 285.1 161.25 286.6 161.25H351.95C352.65 161.25 354.1 162.1 354.5 162.65L362.4 174.75C365.55 179.6 372.05 183.1 377.85 183.1H383.7C388.1 183.1 391.8 181.05 393.65 177.65C395.15 174.85 395.2 171.5 393.9 168.4C395.9 169.05 397.95 169.4 400.1 169.4H400.2C398.3 172.75 399 175.8 399.4 176.9C399.9 178.35 402.1 183.15 409.45 183.15H415.3C420.2 183.15 426.6 180.95 430.45 177.95L449.25 163.25C450.4 162.35 453.45 161.3 454.95 161.3H520.3C521 161.3 522.45 162.15 522.85 162.7L530.75 174.8C533.9 179.65 540.4 183.15 546.2 183.15H552.05C556.45 183.15 560.15 181.1 562 177.7C563.85 174.3 563.55 170.05 561.15 166.4M150.9 133.3L161.6 124.95L167.05 133.3H150.95H150.9ZM319.25 133.3L329.95 124.95L335.35 133.3H319.25ZM487.6 133.3L498.3 124.95L503.7 133.3H487.6Z" fill="#0078BF"/>
<path d="M172.4 100.25C170.65 97.5505 167.15 97.0005 164.65 98.9505L71.55 171.8C69.05 173.8 69.6 175.401 72.8 175.401H78.65C81.85 175.401 86.55 173.8 89.05 171.8L107.85 157.1C110.35 155.15 115.05 153.5 118.25 153.5H183.6C186.8 153.5 190.85 155.7 192.6 158.4L200.5 170.5C202.25 173.2 206.3 175.401 209.5 175.401H215.35C218.55 175.401 219.75 173.2 218 170.5L172.4 100.25ZM128.55 140.9L163.5 113.6L181.25 140.9H128.6H128.55Z" fill="white"/>
<path d="M340.75 100.25C339 97.5505 335.5 97.0005 333 98.9505L239.9 171.8C237.35 173.8 237.9 175.401 241.15 175.401H247C250.2 175.401 254.9 173.8 257.4 171.8L276.2 157.1C278.7 155.15 283.4 153.5 286.6 153.5H351.95C355.15 153.5 359.2 155.7 360.95 158.4L368.85 170.5C370.6 173.2 374.65 175.401 377.85 175.401H383.7C386.9 175.401 388.1 173.2 386.35 170.5L340.75 100.25ZM296.9 140.9L331.85 113.6L349.55 140.9H296.9Z" fill="white"/>
<path d="M554.7 170.45L509.1 100.2C507.35 97.5004 503.85 96.9504 501.35 98.9004L408.25 171.75C405.7 173.75 406.3 175.35 409.5 175.35H415.35C418.55 175.35 423.25 173.75 425.75 171.75L444.55 157.05C447.05 155.1 451.75 153.45 454.95 153.45H520.3C523.5 153.45 527.55 155.65 529.3 158.35L537.2 170.45C538.95 173.15 543 175.35 546.2 175.35H552.05C555.25 175.35 556.45 173.15 554.7 170.45ZM465.25 140.85L500.2 113.55L517.95 140.85H465.3H465.25Z" fill="white"/>
<path d="M454 18.7C449.65 12 440.9 10.55 434.6 15.45L355.5 77.25C349.2 82.2 347.6 91.7 351.95 98.4L389.2 155.65C393.55 162.35 402.3 163.8 408.6 158.9L487.7 97.1C494 92.15 495.6 82.65 491.25 75.9L454 18.65V18.7Z" fill="#37B8E9"/>
<path d="M116.95 18.65C112.6 11.95 103.85 10.5 97.55 15.4L18.45 77.2C12.15 82.15 10.55 91.65 14.9 98.35L52.15 155.6C56.5 162.3 65.25 163.75 71.55 158.85L150.65 97.05C156.95 92.1 158.55 82.6 154.2 75.85L116.95 18.6V18.65Z" fill="#37B8E9"/>
<path d="M285.45 18.7C281.1 12 272.35 10.55 266.05 15.45L186.95 77.25C180.65 82.2 179.05 91.7 183.4 98.4L220.65 155.65C225 162.35 233.75 163.8 240.05 158.9L319.15 97.1C325.45 92.15 327.05 82.65 322.7 75.9L285.45 18.65V18.7Z" fill="#37B8E9"/>
<path d="M231.3 92.3502C228.35 100.1 228.7 107.25 232.25 112.55C234.55 116 239.25 120.1 248.55 120.4C262.2 120.35 275.55 107.45 276.6 93.3502C278.55 77.2002 268.25 57.6002 267.8 56.8002L266.3 54.0002L263.75 55.8502C252.25 64.3002 237.2 79.3002 231.3 92.2002V92.3502Z" fill="white"/>
<path d="M265.4 58.0004C265.4 58.0004 275.75 77.5004 273.85 93.1004C272.95 105.3 261.3 117.55 248.6 117.6C233.95 117.2 229 105.95 233.85 93.2504C239.65 80.5004 254.7 65.8004 265.4 57.9504" fill="#0078BF"/>
<path d="M62.8 92.3502C59.85 100.1 60.2 107.25 63.75 112.55C66.05 116 70.75 120.1 80.05 120.4C93.7 120.35 107.05 107.45 108.1 93.3502C110.05 77.2002 99.75 57.6002 99.3 56.8002L97.8 54.0002L95.25 55.8502C83.75 64.3002 68.7 79.3002 62.8 92.2002V92.3502Z" fill="#0078BF"/>
<path d="M96.9 58.0004C96.9 58.0004 107.25 77.5004 105.35 93.1004C104.45 105.3 92.8 117.55 80.1 117.6C65.45 117.2 60.5 105.95 65.35 93.2504C71.15 80.5004 86.2 65.8004 96.9 57.9504" fill="white"/>
<path d="M451.6 59.7496C450.1 57.7496 447.7 56.5996 444.95 56.5996H438.45C437.8 54.6996 436.1 53.2996 434.05 53.2996H423.35C421.3 53.2996 419.4 54.6996 418.6 56.5996H410.45C406.25 56.5996 402.55 59.0996 401.5 62.7496C400.85 64.8996 401.25 67.1996 402.55 68.9996L390.25 110.95C389.55 113.45 389.95 116.05 391.4 118.05C392.85 120.05 395.2 121.2 397.75 121.2H426.5C430.65 121.2 434.5 118.3 435.7 114.25L448.4 70.9496C450.4 69.8496 452 68.1996 452.6 66.0996C453.25 63.8996 452.85 61.6496 451.5 59.8496" fill="white"/>
<path d="M435.65 71.4502H435.4C434.35 71.4502 433.2 72.3002 432.9 73.3502L421.6 112C421.3 113.05 421.95 113.9 423 113.9H423.25C424.3 113.9 425.45 113.05 425.75 112L437.05 73.3502C437.35 72.3002 436.7 71.4502 435.65 71.4502Z" fill="#0078BF"/>
<path d="M425.15 71.4502H424.9C423.85 71.4502 422.7 72.3002 422.4 73.3502L411.1 112.05C410.8 113.1 411.45 113.95 412.5 113.95H412.75C413.8 113.95 414.95 113.1 415.25 112.05L426.55 73.3502C426.85 72.3002 426.25 71.4502 425.15 71.4502Z" fill="#0078BF"/>
<path d="M414.7 71.4502H414.45C413.4 71.4502 412.25 72.3002 411.95 73.3502L400.65 112.05C400.35 113.1 401 113.95 402.05 113.95H402.25C403.3 113.95 404.45 113.1 404.75 112.05L416.05 73.3502C416.35 72.3002 415.75 71.4502 414.65 71.4502" fill="#0078BF"/>
<path d="M447.25 64.3497C446.95 65.3997 445.55 66.2497 444.05 66.3497H408.95C407.5 66.2497 406.6 65.3997 406.95 64.3497C407.3 63.2497 408.85 62.2997 410.5 62.2997H445C446.6 62.2997 447.65 63.1997 447.35 64.3497M430.45 112.55C430 114.1 428.3 115.4 426.7 115.4H397.95C396.35 115.4 395.4 114.15 395.85 112.55L408.45 69.4997H409.35H443.05L430.45 112.5V112.55ZM449.65 61.2997C448.65 59.9497 447 59.1997 445.05 59.1997H436.4L436.25 57.8997C436.15 56.7997 435.2 55.9497 434.1 55.9497H423.4C422.35 55.9497 421.2 56.7997 420.9 57.8497L420.5 59.2497H410.55C407.5 59.2497 404.8 61.0497 404.05 63.4997C403.65 64.8997 403.9 66.2997 404.7 67.4497C404.95 67.7997 405.2 68.0497 405.55 68.3497L405.45 68.6997L392.85 111.75C392.35 113.45 392.65 115.2 393.6 116.5C394.6 117.85 396.15 118.6 397.9 118.6H426.65C429.65 118.6 432.55 116.4 433.4 113.5L446 70.4497L446.4 69.0997C448.3 68.3997 449.8 67.0497 450.3 65.2997C450.7 63.9497 450.45 62.4997 449.6 61.3497" fill="#0078BF"/>
</svg>
